<?xml version="1.0" encoding="utf-8"?>
<!-- Generator: Adobe Illustrator 18.1.1, SVG Export Plug-In . SVG Version: 6.00 Build 0)  -->
<svg version="1.1" id="Layer_1" xmlns="http://www.w3.org/2000/svg" xmlns:xlink="http://www.w3.org/1999/xlink" x="0px" y="0px"
	 viewBox="0 0 106.7 106.7" enable-background="new 0 0 106.7 106.7" xml:space="preserve">
<g>
	<rect x="3.5" y="3.5" fill="#004289" width="99.7" height="99.7"/>
	<path fill="#004289" d="M106.7,106.7H0V0h106.7V106.7z M7,99.7h92.7V7H7V99.7z"/>
</g>
<g>
	<rect x="5.1" y="5" fill="#004289" width="32.2" height="32.2"/>
	<path fill="#FFFFFF" d="M38.8,38.7H3.6V3.5h35.2V38.7z M6.6,35.7h29.2V6.5H6.6V35.7z"/>
</g>
<g>
	<rect x="5.1" y="37.2" fill="#004289" width="32.2" height="32.2"/>
	<path fill="#FFFFFF" d="M38.8,71H3.6V35.7h35.2V71z M6.6,68h29.2V38.7H6.6V68z"/>
</g>
<g>
	<rect x="5.1" y="69.5" fill="#004289" width="32.2" height="32.2"/>
	<path fill="#FFFFFF" d="M38.8,103.2H3.6V68h35.2V103.2z M6.6,100.2h29.2V71H6.6V100.2z"/>
</g>
<g>
	<rect x="37.3" y="37.2" fill="#D0043C" width="32.2" height="32.2"/>
	<path fill="#FFFFFF" d="M71,71H35.8V35.7H71V71z M38.8,68H68V38.7H38.8V68z"/>
</g>
<g>
	<rect x="69.5" y="5" fill="#004289" width="32.2" height="32.2"/>
	<path fill="#FFFFFF" d="M103.3,38.7H68V3.5h35.2V38.7z M71,35.7h29.2V6.5H71V35.7z"/>
</g>
<g>
	<rect x="69.5" y="37.2" fill="#004289" width="32.2" height="32.2"/>
	<path fill="#FFFFFF" d="M103.3,71H68V35.7h35.2V71z M71,68h29.2V38.7H71V68z"/>
</g>
<g>
	<rect x="69.5" y="69.5" fill="#004289" width="32.2" height="32.2"/>
	<path fill="#FFFFFF" d="M103.3,103.2H68V68h35.2V103.2z M71,100.2h29.2V71H71V100.2z"/>
</g>
<g>
	<rect x="37.3" y="5" fill="#FFFFFF" width="32.2" height="32.2"/>
	<path fill="#FFFFFF" d="M71,38.7H35.8V3.5H71V38.7z M38.8,35.7H68V6.5H38.8V35.7z"/>
</g>
<g>
	<rect x="37.3" y="69.5" fill="#FFFFFF" width="32.2" height="32.2"/>
	<path fill="#FFFFFF" d="M71,103.2H35.8V68H71V103.2z M38.8,100.2H68V71H38.8V100.2z"/>
</g>
</svg>
